<svg width="544" height="544" viewBox="0 0 544 544" fill="none" xmlns="http://www.w3.org/2000/svg">
<path opacity="0.3" d="M68 0H0V68H68V0Z" fill="black" fill-opacity="0.38"/>
<path opacity="0.3" d="M136 0H68V68H136V0Z" fill="black" fill-opacity="0.1"/>
<path opacity="0.3" d="M204 0H136V68H204V0Z" fill="black" fill-opacity="0.38"/>
<path opacity="0.3" d="M272 0H204V68H272V0Z" fill="black" fill-opacity="0.1"/>
<path opacity="0.3" d="M340 0H272V68H340V0Z" fill="black" fill-opacity="0.38"/>
<path opacity="0.3" d="M408 0H340V68H408V0Z" fill="black" fill-opacity="0.1"/>
<path opacity="0.3" d="M476 0H408V68H476V0Z" fill="black" fill-opacity="0.38"/>
<path opacity="0.3" d="M544 0H476V68H544V0Z" fill="black" fill-opacity="0.1"/>
<path opacity="0.3" d="M68 68H0V136H68V68Z" fill="black" fill-opacity="0.1"/>
<path opacity="0.3" d="M136 68H68V136H136V68Z" fill="black" fill-opacity="0.38"/>
<path opacity="0.3" d="M204 68H136V136H204V68Z" fill="black" fill-opacity="0.1"/>
<path opacity="0.3" d="M272 68H204V136H272V68Z" fill="black" fill-opacity="0.38"/>
<path opacity="0.3" d="M340 68H272V136H340V68Z" fill="black" fill-opacity="0.1"/>
<path opacity="0.3" d="M408 68H340V136H408V68Z" fill="black" fill-opacity="0.38"/>
<path opacity="0.3" d="M476 68H408V136H476V68Z" fill="black" fill-opacity="0.1"/>
<path opacity="0.3" d="M544 68H476V136H544V68Z" fill="black" fill-opacity="0.38"/>
<path opacity="0.3" d="M68 136H0V204H68V136Z" fill="black" fill-opacity="0.38"/>
<path opacity="0.3" d="M136 136H68V204H136V136Z" fill="black" fill-opacity="0.1"/>
<path opacity="0.3" d="M204 136H136V204H204V136Z" fill="black" fill-opacity="0.38"/>
<path opacity="0.3" d="M272 136H204V204H272V136Z" fill="black" fill-opacity="0.1"/>
<path opacity="0.3" d="M340 136H272V204H340V136Z" fill="black" fill-opacity="0.38"/>
<path opacity="0.3" d="M408 136H340V204H408V136Z" fill="black" fill-opacity="0.1"/>
<path opacity="0.3" d="M476 136H408V204H476V136Z" fill="black" fill-opacity="0.38"/>
<path opacity="0.3" d="M544 136H476V204H544V136Z" fill="black" fill-opacity="0.1"/>
<path opacity="0.3" d="M68 204H0V272H68V204Z" fill="black" fill-opacity="0.1"/>
<path opacity="0.3" d="M136 204H68V272H136V204Z" fill="black" fill-opacity="0.38"/>
<path opacity="0.3" d="M204 204H136V272H204V204Z" fill="black" fill-opacity="0.1"/>
<path opacity="0.3" d="M272 204H204V272H272V204Z" fill="black" fill-opacity="0.38"/>
<path opacity="0.3" d="M340 204H272V272H340V204Z" fill="black" fill-opacity="0.1"/>
<path opacity="0.3" d="M408 204H340V272H408V204Z" fill="black" fill-opacity="0.38"/>
<path opacity="0.3" d="M476 204H408V272H476V204Z" fill="black" fill-opacity="0.1"/>
<path opacity="0.3" d="M544 204H476V272H544V204Z" fill="black" fill-opacity="0.38"/>
<path opacity="0.3" d="M68 272H0V340H68V272Z" fill="black" fill-opacity="0.38"/>
<path opacity="0.3" d="M136 272H68V340H136V272Z" fill="black" fill-opacity="0.1"/>
<path opacity="0.3" d="M204 272H136V340H204V272Z" fill="black" fill-opacity="0.38"/>
<path opacity="0.3" d="M272 272H204V340H272V272Z" fill="black" fill-opacity="0.1"/>
<path opacity="0.3" d="M340 272H272V340H340V272Z" fill="black" fill-opacity="0.38"/>
<path opacity="0.3" d="M408 272H340V340H408V272Z" fill="black" fill-opacity="0.1"/>
<path opacity="0.3" d="M476 272H408V340H476V272Z" fill="black" fill-opacity="0.38"/>
<path opacity="0.3" d="M544 272H476V340H544V272Z" fill="black" fill-opacity="0.1"/>
<path opacity="0.3" d="M68 340H0V408H68V340Z" fill="black" fill-opacity="0.1"/>
<path opacity="0.3" d="M136 340H68V408H136V340Z" fill="black" fill-opacity="0.38"/>
<path opacity="0.3" d="M204 340H136V408H204V340Z" fill="black" fill-opacity="0.1"/>
<path opacity="0.3" d="M272 340H204V408H272V340Z" fill="black" fill-opacity="0.38"/>
<path opacity="0.3" d="M340 340H272V408H340V340Z" fill="black" fill-opacity="0.1"/>
<path opacity="0.3" d="M408 340H340V408H408V340Z" fill="black" fill-opacity="0.38"/>
<path opacity="0.3" d="M476 340H408V408H476V340Z" fill="black" fill-opacity="0.1"/>
<path opacity="0.3" d="M544 340H476V408H544V340Z" fill="black" fill-opacity="0.38"/>
<path opacity="0.3" d="M68 408H0V476H68V408Z" fill="black" fill-opacity="0.38"/>
<path opacity="0.3" d="M136 408H68V476H136V408Z" fill="black" fill-opacity="0.1"/>
<path opacity="0.3" d="M204 408H136V476H204V408Z" fill="black" fill-opacity="0.38"/>
<path opacity="0.3" d="M272 408H204V476H272V408Z" fill="black" fill-opacity="0.1"/>
<path opacity="0.3" d="M340 408H272V476H340V408Z" fill="black" fill-opacity="0.38"/>
<path opacity="0.3" d="M408 408H340V476H408V408Z" fill="black" fill-opacity="0.1"/>
<path opacity="0.3" d="M476 408H408V476H476V408Z" fill="black" fill-opacity="0.38"/>
<path opacity="0.3" d="M544 408H476V476H544V408Z" fill="black" fill-opacity="0.1"/>
<path opacity="0.3" d="M68 476H0V544H68V476Z" fill="black" fill-opacity="0.1"/>
<path opacity="0.3" d="M136 476H68V544H136V476Z" fill="black" fill-opacity="0.38"/>
<path opacity="0.3" d="M204 476H136V544H204V476Z" fill="black" fill-opacity="0.1"/>
<path opacity="0.3" d="M272 476H204V544H272V476Z" fill="black" fill-opacity="0.38"/>
<path opacity="0.3" d="M340 476H272V544H340V476Z" fill="black" fill-opacity="0.1"/>
<path opacity="0.3" d="M408 476H340V544H408V476Z" fill="black" fill-opacity="0.38"/>
<path opacity="0.3" d="M476 476H408V544H476V476Z" fill="black" fill-opacity="0.1"/>
<path opacity="0.3" d="M544 476H476V544H544V476Z" fill="black" fill-opacity="0.38"/>
</svg>
