<svg width="68" height="68" viewBox="0 0 68 68" fill="none" xmlns="http://www.w3.org/2000/svg">
<path d="M18.6726 52.7335C19.0524 52.2693 19.6206 52 20.2205 52H47.7795C48.3794 52 48.9476 52.2693 49.3274 52.7335V52.7335C50.3959 54.0394 49.4668 56 47.7795 56H20.2205C18.5332 56 17.6041 54.0394 18.6726 52.7335V52.7335Z" fill="#C29E57"/>
<path d="M25.4644 49.5568C25.6713 48.6462 26.4808 48 27.4146 48H40.5854C41.5192 48 42.3287 48.6462 42.5356 49.5568L43.4447 53.5568C43.7292 54.8083 42.7779 56 41.4945 56H26.5055C25.2221 56 24.2708 54.8083 24.5553 53.5568L25.4644 49.5568Z" fill="#C29E57"/>
<path d="M31.7206 24C29.6922 24 28.9523 26.6714 30.6916 27.715L31.493 28.1958C31.8239 28.3944 32.2052 28.4929 32.5909 28.4796L44.5689 28.0666C45.646 28.0294 46.5 27.1455 46.5 26.0678L46.5 24L31.7206 24Z" fill="#C29E57"/>
<path d="M35.5547 28C37.2791 28 38.1952 25.9638 37.0514 24.6734L36.2175 23.7325C35.8078 23.2704 35.2077 23.0234 34.5914 23.0633L28.8706 23.4343C27.8185 23.5025 27 24.3757 27 25.4301L27 28L35.5547 28Z" fill="#C29E57"/>
<path d="M34.4296 18.8159C34.1573 18.9326 33.9508 19.164 33.8657 19.4477L32.8132 22.956C32.6448 23.5175 32.9932 24.1028 33.5671 24.2223L37.296 24.9992C37.917 25.1285 38.5 24.6545 38.5 24.0202L38.5 19.7361C38.5 19.5808 38.4639 19.4277 38.3944 19.2889L37.9217 18.3434C37.6849 17.8698 37.12 17.6629 36.6333 17.8714L34.4296 18.8159Z" fill="#C29E57"/>
<path fill-rule="evenodd" clip-rule="evenodd" d="M31.3882 26.3288C31.185 25.1097 32.1251 24 33.361 24H38C39.1046 24 40 24.8954 40 26V31C40 31.5973 39.7382 32.1335 39.3229 32.5C39.7382 32.8665 40 33.4027 40 34V50C40 51.1046 39.1046 52 38 52H30.4396C29.1776 52 28.231 50.8454 28.4785 49.6078L31.6785 33.6078C31.795 33.0253 32.1575 32.5445 32.6449 32.2648C32.4304 32.0024 32.2805 31.683 32.2215 31.3288L31.3882 26.3288Z" fill="#C29E57"/>
<path d="M43 11C43 17.2222 49 18.7778 49 25C49 31.2222 43 32.7778 43 39" stroke="#C29E57" stroke-width="2" stroke-linecap="round"/>
</svg>
