<svg width="68" height="68" viewBox="0 0 68 68" fill="none" xmlns="http://www.w3.org/2000/svg">
<path d="M18.6726 52.7335C19.0524 52.2693 19.6206 52 20.2205 52H47.7795C48.3794 52 48.9476 52.2693 49.3274 52.7335C50.3959 54.0394 49.4668 56 47.7795 56H20.2205C18.5332 56 17.6041 54.0394 18.6726 52.7335Z" fill="#000033"/>
<path d="M25.4644 49.5568C25.6713 48.6462 26.4808 48 27.4146 48H40.5854C41.5192 48 42.3287 48.6462 42.5356 49.5568L43.4447 53.5568C43.7292 54.8083 42.7779 56 41.4945 56H26.5055C25.2221 56 24.2708 54.8083 24.5553 53.5568L25.4644 49.5568Z" fill="#000033"/>
<path d="M20 38C18.8954 38 18 38.8954 18 40L18 44C18 45.1046 18.8954 46 20 46L48 46C49.1046 46 50 45.1046 50 44L50 40C50 38.8954 49.1046 38 48 38L20 38Z" fill="#000033"/>
<path d="M32 21C30.8954 21 30 21.8954 30 23L30 44C30 45.1046 30.8954 46 32 46L36 46C37.1046 46 38 45.1046 38 44L38 23C38 21.8954 37.1046 21 36 21L32 21Z" fill="#000033"/>
<path d="M29.4142 45.5858C28.6332 46.3668 28.6332 47.6332 29.4142 48.4142L32.5858 51.5858C33.3668 52.3668 34.6332 52.3668 35.4142 51.5858L38.5858 48.4142C39.3668 47.6332 39.3668 46.3668 38.5858 45.5858L35.4142 42.4142C34.6332 41.6332 33.3668 41.6332 32.5858 42.4142L29.4142 45.5858Z" fill="#000033"/>
</svg>
