<svg width="68" height="68" viewBox="0 0 68 68" fill="none" xmlns="http://www.w3.org/2000/svg">
<path d="M18.6726 52.7335C19.0524 52.2693 19.6206 52 20.2205 52H47.7795C48.3794 52 48.9476 52.2693 49.3274 52.7335V52.7335C50.3959 54.0394 49.4668 56 47.7795 56H20.2205C18.5332 56 17.6041 54.0394 18.6726 52.7335V52.7335Z" fill="#C29E57"/>
<path d="M25.4644 49.5568C25.6713 48.6462 26.4808 48 27.4146 48H40.5854C41.5192 48 42.3287 48.6462 42.5356 49.5568L43.4447 53.5568C43.7292 54.8083 42.7779 56 41.4945 56H26.5055C25.2221 56 24.2708 54.8083 24.5553 53.5568L25.4644 49.5568Z" fill="#C29E57"/>
<path fill-rule="evenodd" clip-rule="evenodd" d="M21.6031 47.4176L27.3942 28.3898C27.6362 27.5946 28.4303 27.1022 29.2502 27.2388C30.784 27.4945 31.7923 25.6858 30.7683 24.5156L27.9696 21.317C27.3098 20.5629 27.3098 19.437 27.9696 18.683L33.8172 12L39.6648 18.683C40.3246 19.437 40.3246 20.563 39.6648 21.317L36.8661 24.5156C35.8421 25.6858 36.8504 27.4945 38.3842 27.2388C39.2041 27.1022 39.9982 27.5947 40.2402 28.3898L41.0998 31.2142L35.4145 36.8995C34.6334 37.6805 34.6334 38.9469 35.4145 39.7279C36.1955 40.509 37.4618 40.509 38.2429 39.7279L42.4197 35.5511L46.0313 47.4177C46.4223 48.7025 45.461 50 44.1179 50L33.8172 50H23.5165C22.1734 50 21.2121 48.7025 21.6031 47.4176Z" fill="#C29E57"/>
</svg>
