<svg width="544" height="544" viewBox="0 0 544 544" fill="none" xmlns="http://www.w3.org/2000/svg">
<g opacity="0.3">
<g clip-path="url(#clip0)">
<rect width="68" height="68" fill="black" fill-opacity="0.38"/>
</g>
<g clip-path="url(#clip1)">
<rect x="68" width="68" height="68" fill="black" fill-opacity="0.1"/>
</g>
<g clip-path="url(#clip2)">
<rect x="136" width="68" height="68" fill="black" fill-opacity="0.38"/>
</g>
<g clip-path="url(#clip3)">
<rect x="204" width="68" height="68" fill="black" fill-opacity="0.1"/>
</g>
<g clip-path="url(#clip4)">
<rect x="272" width="68" height="68" fill="black" fill-opacity="0.38"/>
</g>
<g clip-path="url(#clip5)">
<rect x="340" width="68" height="68" fill="black" fill-opacity="0.1"/>
</g>
<g clip-path="url(#clip6)">
<rect x="408" width="68" height="68" fill="black" fill-opacity="0.38"/>
</g>
<g clip-path="url(#clip7)">
<rect x="476" width="68" height="68" fill="black" fill-opacity="0.1"/>
</g>
<g clip-path="url(#clip8)">
<rect y="68" width="68" height="68" fill="black" fill-opacity="0.1"/>
</g>
<g clip-path="url(#clip9)">
<rect x="68" y="68" width="68" height="68" fill="black" fill-opacity="0.38"/>
</g>
<g clip-path="url(#clip10)">
<rect x="136" y="68" width="68" height="68" fill="black" fill-opacity="0.1"/>
</g>
<g clip-path="url(#clip11)">
<rect x="204" y="68" width="68" height="68" fill="black" fill-opacity="0.38"/>
</g>
<g clip-path="url(#clip12)">
<rect x="272" y="68" width="68" height="68" fill="black" fill-opacity="0.1"/>
</g>
<g clip-path="url(#clip13)">
<rect x="340" y="68" width="68" height="68" fill="black" fill-opacity="0.38"/>
</g>
<g clip-path="url(#clip14)">
<rect x="408" y="68" width="68" height="68" fill="black" fill-opacity="0.1"/>
</g>
<g clip-path="url(#clip15)">
<rect x="476" y="68" width="68" height="68" fill="black" fill-opacity="0.38"/>
</g>
<g clip-path="url(#clip16)">
<rect y="136" width="68" height="68" fill="black" fill-opacity="0.38"/>
</g>
<g clip-path="url(#clip17)">
<rect x="68" y="136" width="68" height="68" fill="black" fill-opacity="0.1"/>
</g>
<g clip-path="url(#clip18)">
<rect x="136" y="136" width="68" height="68" fill="black" fill-opacity="0.38"/>
</g>
<g clip-path="url(#clip19)">
<rect x="204" y="136" width="68" height="68" fill="black" fill-opacity="0.1"/>
</g>
<g clip-path="url(#clip20)">
<rect x="272" y="136" width="68" height="68" fill="black" fill-opacity="0.38"/>
</g>
<g clip-path="url(#clip21)">
<rect x="340" y="136" width="68" height="68" fill="black" fill-opacity="0.1"/>
</g>
<g clip-path="url(#clip22)">
<rect x="408" y="136" width="68" height="68" fill="black" fill-opacity="0.38"/>
</g>
<g clip-path="url(#clip23)">
<rect x="476" y="136" width="68" height="68" fill="black" fill-opacity="0.1"/>
</g>
<g clip-path="url(#clip24)">
<rect y="204" width="68" height="68" fill="black" fill-opacity="0.1"/>
</g>
<g clip-path="url(#clip25)">
<rect x="68" y="204" width="68" height="68" fill="black" fill-opacity="0.38"/>
</g>
<g clip-path="url(#clip26)">
<rect x="136" y="204" width="68" height="68" fill="black" fill-opacity="0.1"/>
</g>
<g clip-path="url(#clip27)">
<rect x="204" y="204" width="68" height="68" fill="black" fill-opacity="0.38"/>
</g>
<g clip-path="url(#clip28)">
<rect x="272" y="204" width="68" height="68" fill="black" fill-opacity="0.1"/>
</g>
<g clip-path="url(#clip29)">
<rect x="340" y="204" width="68" height="68" fill="black" fill-opacity="0.38"/>
</g>
<g clip-path="url(#clip30)">
<rect x="408" y="204" width="68" height="68" fill="black" fill-opacity="0.1"/>
</g>
<g clip-path="url(#clip31)">
<rect x="476" y="204" width="68" height="68" fill="black" fill-opacity="0.38"/>
</g>
<g clip-path="url(#clip32)">
<rect y="272" width="68" height="68" fill="black" fill-opacity="0.38"/>
</g>
<g clip-path="url(#clip33)">
<rect x="68" y="272" width="68" height="68" fill="black" fill-opacity="0.1"/>
</g>
<g clip-path="url(#clip34)">
<rect x="136" y="272" width="68" height="68" fill="black" fill-opacity="0.38"/>
</g>
<g clip-path="url(#clip35)">
<rect x="204" y="272" width="68" height="68" fill="black" fill-opacity="0.1"/>
</g>
<g clip-path="url(#clip36)">
<rect x="272" y="272" width="68" height="68" fill="black" fill-opacity="0.38"/>
</g>
<g clip-path="url(#clip37)">
<rect x="340" y="272" width="68" height="68" fill="black" fill-opacity="0.1"/>
</g>
<g clip-path="url(#clip38)">
<rect x="408" y="272" width="68" height="68" fill="black" fill-opacity="0.38"/>
</g>
<g clip-path="url(#clip39)">
<rect x="476" y="272" width="68" height="68" fill="black" fill-opacity="0.1"/>
</g>
<g clip-path="url(#clip40)">
<rect y="340" width="68" height="68" fill="black" fill-opacity="0.1"/>
</g>
<g clip-path="url(#clip41)">
<rect x="68" y="340" width="68" height="68" fill="black" fill-opacity="0.38"/>
</g>
<g clip-path="url(#clip42)">
<rect x="136" y="340" width="68" height="68" fill="black" fill-opacity="0.1"/>
</g>
<g clip-path="url(#clip43)">
<rect x="204" y="340" width="68" height="68" fill="black" fill-opacity="0.38"/>
</g>
<g clip-path="url(#clip44)">
<rect x="272" y="340" width="68" height="68" fill="black" fill-opacity="0.1"/>
</g>
<g clip-path="url(#clip45)">
<rect x="340" y="340" width="68" height="68" fill="black" fill-opacity="0.38"/>
</g>
<g clip-path="url(#clip46)">
<rect x="408" y="340" width="68" height="68" fill="black" fill-opacity="0.1"/>
</g>
<g clip-path="url(#clip47)">
<rect x="476" y="340" width="68" height="68" fill="black" fill-opacity="0.38"/>
</g>
<g clip-path="url(#clip48)">
<rect y="408" width="68" height="68" fill="black" fill-opacity="0.38"/>
</g>
<g clip-path="url(#clip49)">
<rect x="68" y="408" width="68" height="68" fill="black" fill-opacity="0.1"/>
</g>
<g clip-path="url(#clip50)">
<rect x="136" y="408" width="68" height="68" fill="black" fill-opacity="0.38"/>
</g>
<g clip-path="url(#clip51)">
<rect x="204" y="408" width="68" height="68" fill="black" fill-opacity="0.1"/>
</g>
<g clip-path="url(#clip52)">
<rect x="272" y="408" width="68" height="68" fill="black" fill-opacity="0.38"/>
</g>
<g clip-path="url(#clip53)">
<rect x="340" y="408" width="68" height="68" fill="black" fill-opacity="0.1"/>
</g>
<g clip-path="url(#clip54)">
<rect x="408" y="408" width="68" height="68" fill="black" fill-opacity="0.38"/>
</g>
<g clip-path="url(#clip55)">
<rect x="476" y="408" width="68" height="68" fill="black" fill-opacity="0.1"/>
</g>
<g clip-path="url(#clip56)">
<rect y="476" width="68" height="68" fill="black" fill-opacity="0.1"/>
</g>
<g clip-path="url(#clip57)">
<rect x="68" y="476" width="68" height="68" fill="black" fill-opacity="0.38"/>
</g>
<g clip-path="url(#clip58)">
<rect x="136" y="476" width="68" height="68" fill="black" fill-opacity="0.1"/>
</g>
<g clip-path="url(#clip59)">
<rect x="204" y="476" width="68" height="68" fill="black" fill-opacity="0.38"/>
</g>
<g clip-path="url(#clip60)">
<rect x="272" y="476" width="68" height="68" fill="black" fill-opacity="0.1"/>
</g>
<g clip-path="url(#clip61)">
<rect x="340" y="476" width="68" height="68" fill="black" fill-opacity="0.38"/>
</g>
<g clip-path="url(#clip62)">
<rect x="408" y="476" width="68" height="68" fill="black" fill-opacity="0.1"/>
</g>
<g clip-path="url(#clip63)">
<rect x="476" y="476" width="68" height="68" fill="black" fill-opacity="0.38"/>
</g>
</g>
<defs>
<clipPath id="clip0">
<rect width="68" height="68" fill="white"/>
</clipPath>
<clipPath id="clip1">
<rect width="68" height="68" fill="white" transform="translate(68)"/>
</clipPath>
<clipPath id="clip2">
<rect width="68" height="68" fill="white" transform="translate(136)"/>
</clipPath>
<clipPath id="clip3">
<rect width="68" height="68" fill="white" transform="translate(204)"/>
</clipPath>
<clipPath id="clip4">
<rect width="68" height="68" fill="white" transform="translate(272)"/>
</clipPath>
<clipPath id="clip5">
<rect width="68" height="68" fill="white" transform="translate(340)"/>
</clipPath>
<clipPath id="clip6">
<rect width="68" height="68" fill="white" transform="translate(408)"/>
</clipPath>
<clipPath id="clip7">
<rect width="68" height="68" fill="white" transform="translate(476)"/>
</clipPath>
<clipPath id="clip8">
<rect width="68" height="68" fill="white" transform="translate(0 68)"/>
</clipPath>
<clipPath id="clip9">
<rect width="68" height="68" fill="white" transform="translate(68 68)"/>
</clipPath>
<clipPath id="clip10">
<rect width="68" height="68" fill="white" transform="translate(136 68)"/>
</clipPath>
<clipPath id="clip11">
<rect width="68" height="68" fill="white" transform="translate(204 68)"/>
</clipPath>
<clipPath id="clip12">
<rect width="68" height="68" fill="white" transform="translate(272 68)"/>
</clipPath>
<clipPath id="clip13">
<rect width="68" height="68" fill="white" transform="translate(340 68)"/>
</clipPath>
<clipPath id="clip14">
<rect width="68" height="68" fill="white" transform="translate(408 68)"/>
</clipPath>
<clipPath id="clip15">
<rect width="68" height="68" fill="white" transform="translate(476 68)"/>
</clipPath>
<clipPath id="clip16">
<rect width="68" height="68" fill="white" transform="translate(0 136)"/>
</clipPath>
<clipPath id="clip17">
<rect width="68" height="68" fill="white" transform="translate(68 136)"/>
</clipPath>
<clipPath id="clip18">
<rect width="68" height="68" fill="white" transform="translate(136 136)"/>
</clipPath>
<clipPath id="clip19">
<rect width="68" height="68" fill="white" transform="translate(204 136)"/>
</clipPath>
<clipPath id="clip20">
<rect width="68" height="68" fill="white" transform="translate(272 136)"/>
</clipPath>
<clipPath id="clip21">
<rect width="68" height="68" fill="white" transform="translate(340 136)"/>
</clipPath>
<clipPath id="clip22">
<rect width="68" height="68" fill="white" transform="translate(408 136)"/>
</clipPath>
<clipPath id="clip23">
<rect width="68" height="68" fill="white" transform="translate(476 136)"/>
</clipPath>
<clipPath id="clip24">
<rect width="68" height="68" fill="white" transform="translate(0 204)"/>
</clipPath>
<clipPath id="clip25">
<rect width="68" height="68" fill="white" transform="translate(68 204)"/>
</clipPath>
<clipPath id="clip26">
<rect width="68" height="68" fill="white" transform="translate(136 204)"/>
</clipPath>
<clipPath id="clip27">
<rect width="68" height="68" fill="white" transform="translate(204 204)"/>
</clipPath>
<clipPath id="clip28">
<rect width="68" height="68" fill="white" transform="translate(272 204)"/>
</clipPath>
<clipPath id="clip29">
<rect width="68" height="68" fill="white" transform="translate(340 204)"/>
</clipPath>
<clipPath id="clip30">
<rect width="68" height="68" fill="white" transform="translate(408 204)"/>
</clipPath>
<clipPath id="clip31">
<rect width="68" height="68" fill="white" transform="translate(476 204)"/>
</clipPath>
<clipPath id="clip32">
<rect width="68" height="68" fill="white" transform="translate(0 272)"/>
</clipPath>
<clipPath id="clip33">
<rect width="68" height="68" fill="white" transform="translate(68 272)"/>
</clipPath>
<clipPath id="clip34">
<rect width="68" height="68" fill="white" transform="translate(136 272)"/>
</clipPath>
<clipPath id="clip35">
<rect width="68" height="68" fill="white" transform="translate(204 272)"/>
</clipPath>
<clipPath id="clip36">
<rect width="68" height="68" fill="white" transform="translate(272 272)"/>
</clipPath>
<clipPath id="clip37">
<rect width="68" height="68" fill="white" transform="translate(340 272)"/>
</clipPath>
<clipPath id="clip38">
<rect width="68" height="68" fill="white" transform="translate(408 272)"/>
</clipPath>
<clipPath id="clip39">
<rect width="68" height="68" fill="white" transform="translate(476 272)"/>
</clipPath>
<clipPath id="clip40">
<rect width="68" height="68" fill="white" transform="translate(0 340)"/>
</clipPath>
<clipPath id="clip41">
<rect width="68" height="68" fill="white" transform="translate(68 340)"/>
</clipPath>
<clipPath id="clip42">
<rect width="68" height="68" fill="white" transform="translate(136 340)"/>
</clipPath>
<clipPath id="clip43">
<rect width="68" height="68" fill="white" transform="translate(204 340)"/>
</clipPath>
<clipPath id="clip44">
<rect width="68" height="68" fill="white" transform="translate(272 340)"/>
</clipPath>
<clipPath id="clip45">
<rect width="68" height="68" fill="white" transform="translate(340 340)"/>
</clipPath>
<clipPath id="clip46">
<rect width="68" height="68" fill="white" transform="translate(408 340)"/>
</clipPath>
<clipPath id="clip47">
<rect width="68" height="68" fill="white" transform="translate(476 340)"/>
</clipPath>
<clipPath id="clip48">
<rect width="68" height="68" fill="white" transform="translate(0 408)"/>
</clipPath>
<clipPath id="clip49">
<rect width="68" height="68" fill="white" transform="translate(68 408)"/>
</clipPath>
<clipPath id="clip50">
<rect width="68" height="68" fill="white" transform="translate(136 408)"/>
</clipPath>
<clipPath id="clip51">
<rect width="68" height="68" fill="white" transform="translate(204 408)"/>
</clipPath>
<clipPath id="clip52">
<rect width="68" height="68" fill="white" transform="translate(272 408)"/>
</clipPath>
<clipPath id="clip53">
<rect width="68" height="68" fill="white" transform="translate(340 408)"/>
</clipPath>
<clipPath id="clip54">
<rect width="68" height="68" fill="white" transform="translate(408 408)"/>
</clipPath>
<clipPath id="clip55">
<rect width="68" height="68" fill="white" transform="translate(476 408)"/>
</clipPath>
<clipPath id="clip56">
<rect width="68" height="68" fill="white" transform="translate(0 476)"/>
</clipPath>
<clipPath id="clip57">
<rect width="68" height="68" fill="white" transform="translate(68 476)"/>
</clipPath>
<clipPath id="clip58">
<rect width="68" height="68" fill="white" transform="translate(136 476)"/>
</clipPath>
<clipPath id="clip59">
<rect width="68" height="68" fill="white" transform="translate(204 476)"/>
</clipPath>
<clipPath id="clip60">
<rect width="68" height="68" fill="white" transform="translate(272 476)"/>
</clipPath>
<clipPath id="clip61">
<rect width="68" height="68" fill="white" transform="translate(340 476)"/>
</clipPath>
<clipPath id="clip62">
<rect width="68" height="68" fill="white" transform="translate(408 476)"/>
</clipPath>
<clipPath id="clip63">
<rect width="68" height="68" fill="white" transform="translate(476 476)"/>
</clipPath>
</defs>
</svg>
