<svg width="68" height="68" viewBox="0 0 68 68" fill="none" xmlns="http://www.w3.org/2000/svg">
<path d="M18.6726 52.7335C19.0524 52.2693 19.6206 52 20.2205 52H47.7795C48.3794 52 48.9476 52.2693 49.3274 52.7335C50.3959 54.0394 49.4668 56 47.7795 56H20.2205C18.5332 56 17.6041 54.0394 18.6726 52.7335Z" fill="#000033"/>
<path d="M25.4644 49.5568C25.6713 48.6462 26.4808 48 27.4146 48H40.5854C41.5192 48 42.3287 48.6462 42.5356 49.5568L43.4447 53.5568C43.7292 54.8083 42.7779 56 41.4945 56H26.5055C25.2221 56 24.2708 54.8083 24.5553 53.5568L25.4644 49.5568Z" fill="#000033"/>
<path d="M34 25C27.3726 25 22 30.3726 22 37C22 43.6274 27.3726 49 34 49C40.6274 49 46 43.6274 46 37C46 30.3726 40.6274 25 34 25Z" fill="#000033"/>
<path d="M27.8969 25.0191C27.0585 25.7153 26.9434 26.9594 27.6396 27.7978C28.3359 28.6362 29.58 28.7514 30.4184 28.0551L38.1524 21.6319C38.9908 20.9356 39.106 19.6916 38.4097 18.8532C37.7134 18.0148 36.4693 17.8996 35.6309 18.5959L27.8969 25.0191Z" fill="#000033"/>
<path d="M30.4142 48.5858C29.6332 49.3668 29.6332 50.6332 30.4142 51.4142L32.5858 53.5858C33.3668 54.3668 34.6332 54.3668 35.4142 53.5858L37.5858 51.4142C38.3668 50.6332 38.3668 49.3668 37.5858 48.5858L35.4142 46.4142C34.6332 45.6332 33.3668 45.6332 32.5858 46.4142L30.4142 48.5858Z" fill="#000033"/>
</svg>
