<svg width="68" height="68" viewBox="0 0 68 68" fill="none" xmlns="http://www.w3.org/2000/svg">
<path d="M37.9999 47.9999V30.9999C37.9999 29.8954 37.1045 28.9999 35.9999 28.9999H31C29.8954 28.9999 29 29.8954 29 30.9999V35.2629C29 36.8603 27.1824 37.7468 26.4018 36.3531C26.1582 35.9182 26.0001 35.4591 26.0001 34.9999V26.9977C26.0001 25.8931 25.1063 24.9962 24.0017 24.9915C18.0172 24.9665 10 25.1276 10 30.4999C10 35.5356 15.8231 45.8545 17.6947 49.0411C18.0473 49.6413 18.691 49.9999 19.3871 49.9999H35.9999C37.1045 49.9999 37.9999 49.1045 37.9999 47.9999Z" fill="#C29E57"/>
<path d="M30.0001 47.9999V30.9999C30.0001 29.8954 30.8955 28.9999 32.0001 28.9999H37C38.1046 28.9999 39 29.8954 39 30.9999V35.2629C39 36.8603 40.8176 37.7468 41.5982 36.3531C41.8418 35.9182 41.9999 35.4591 41.9999 34.9999V26.9977C41.9999 25.8931 42.8937 24.9962 43.9983 24.9915C49.9828 24.9665 58 25.1276 58 30.4999C58 35.5356 52.1769 45.8545 50.3053 49.0411C49.9527 49.6413 49.309 49.9999 48.6129 49.9999H32.0001C30.8955 49.9999 30.0001 49.1045 30.0001 47.9999Z" fill="#C29E57"/>
<path d="M18.6726 52.7335C19.0524 52.2693 19.6206 52 20.2205 52H47.7795C48.3794 52 48.9476 52.2693 49.3274 52.7335V52.7335C50.3959 54.0394 49.4668 56 47.7795 56H20.2205C18.5332 56 17.6041 54.0394 18.6726 52.7335V52.7335Z" fill="#C29E57"/>
<path d="M25.4644 49.5568C25.6713 48.6462 26.4808 48 27.4146 48H40.5854C41.5192 48 42.3287 48.6462 42.5356 49.5568L43.4447 53.5568C43.7292 54.8083 42.7779 56 41.4945 56H26.5055C25.2221 56 24.2708 54.8083 24.5553 53.5568L25.4644 49.5568Z" fill="#C29E57"/>
<path d="M35.6001 19.3L35.6001 19.3737C35.6001 20.3211 34.9354 21.1385 34.008 21.3317L28.4081 22.4983C27.1661 22.7571 26.0002 21.809 26.0002 20.5404L26.0002 17.6667C26.0002 16.3333 27.2802 15.3733 28.5602 15.7467L34.1601 17.38C35.0134 17.6289 35.6001 18.4111 35.6001 19.3Z" fill="#C29E57"/>
<path d="M32.3999 19.3L32.3999 19.3737C32.3999 20.3211 33.0646 21.1385 33.992 21.3317L39.5919 22.4983C40.8339 22.7571 41.9998 21.809 41.9998 20.5404L41.9998 17.6667C41.9998 16.3333 40.7198 15.3733 39.4398 15.7467L33.8399 17.38C32.9866 17.6289 32.3999 18.4111 32.3999 19.3Z" fill="#C29E57"/>
<path d="M33.7 20.6001L33.6263 20.6001C32.6789 20.6001 31.8615 19.9354 31.6683 19.008L30.5016 13.408C30.2429 12.166 31.191 11.0001 32.4596 11.0001L35.3333 11.0001C36.6667 11.0001 37.6267 12.2801 37.2533 13.5601L35.62 19.1601C35.3711 20.0134 34.5889 20.6001 33.7 20.6001Z" fill="#C29E57"/>
<path d="M33.7 17.3999L33.6263 17.3999C32.6789 17.3999 31.8615 18.0646 31.6683 18.992L30.5016 24.592C30.2429 25.834 31.191 26.9999 32.4596 26.9999L35.3333 26.9999C36.6667 26.9999 37.6267 25.7199 37.2533 24.4399L35.62 18.8399C35.3711 17.9866 34.5889 17.3999 33.7 17.3999Z" fill="#C29E57"/>
</svg>
