<svg width="68" height="68" viewBox="0 0 68 68" fill="none" xmlns="http://www.w3.org/2000/svg">
<path d="M18.6726 52.7335C19.0524 52.2693 19.6206 52 20.2205 52H47.7795C48.3794 52 48.9476 52.2693 49.3274 52.7335V52.7335C50.3959 54.0394 49.4668 56 47.7795 56H20.2205C18.5332 56 17.6041 54.0394 18.6726 52.7335V52.7335Z" fill="#C29E57"/>
<path d="M25.4644 49.5568C25.6713 48.6462 26.4808 48 27.4146 48H40.5854C41.5192 48 42.3287 48.6462 42.5356 49.5568L43.4447 53.5568C43.7292 54.8083 42.7779 56 41.4945 56H26.5055C25.2221 56 24.2708 54.8083 24.5553 53.5568L25.4644 49.5568Z" fill="#C29E57"/>
<path d="M38.0789 12C44.1842 12 48 16.6531 48 22.8571V42.0041C48 46.4224 44.4183 50 40 50H23C21.8954 50 20.9819 49.0966 21.1299 48.002C22.1012 40.8185 28.32 38.2051 33.0465 33.4108C33.3417 33.1114 33.5 32.7048 33.5 32.2844C33.5 30.9357 31.9752 30.1516 30.8782 30.936L24.7087 35.3478C23.8566 35.9571 22.6787 35.8057 22.0084 35.0007L20.0037 32.5931C19.4144 31.8854 19.3903 30.869 19.8985 30.101C25.4183 21.7607 26.4714 12 38.0789 12Z" fill="#C29E57"/>
</svg>
