<svg width="68" height="68" viewBox="0 0 68 68" fill="none" xmlns="http://www.w3.org/2000/svg">
<path d="M30.1211 51.2427L32.2424 49.1214L30.1211 47L27.9998 49.1214L30.1211 51.2427Z" fill="#C29E57"/>
<path d="M34.3638 51.2427L36.4851 49.1214L34.3638 47L32.2424 49.1214L34.3638 51.2427Z" fill="#C29E57"/>
<path d="M38.6064 51.2427L40.7278 49.1214L38.6064 47L36.4851 49.1214L38.6064 51.2427Z" fill="#C29E57"/>
<path d="M18.6726 52.7335C19.0524 52.2693 19.6206 52 20.2205 52H47.7795C48.3794 52 48.9476 52.2693 49.3274 52.7335V52.7335C50.3959 54.0394 49.4668 56 47.7795 56H20.2205C18.5332 56 17.6041 54.0394 18.6726 52.7335V52.7335Z" fill="#C29E57"/>
<path d="M25.4644 49.5568C25.6713 48.6462 26.4808 48 27.4146 48H40.5854C41.5192 48 42.3287 48.6462 42.5356 49.5568L43.4447 53.5568C43.7292 54.8083 42.7779 56 41.4945 56H26.5055C25.2221 56 24.2708 54.8083 24.5553 53.5568L25.4644 49.5568Z" fill="#C29E57"/>
<path fill-rule="evenodd" clip-rule="evenodd" d="M20 20L22.0388 30.1942C22.6728 33.364 24.5017 36.0401 27 37.7917V46H28.1213L29.1213 45L30.1213 46H32.364L33.364 45L34.364 46H36.6066L37.6066 45L38.6066 46H41L41 37.7917C43.4983 36.0401 45.3272 33.364 45.9612 30.1942L48 20H20ZM35.9093 35.8181L34.8946 33.7888C34.5261 33.0517 33.4743 33.0517 33.1058 33.7888L32.091 35.8182L34 36.5L35.9093 35.8181ZM26.4144 28.5857C25.6334 29.3668 25.6334 30.6331 26.4144 31.4142L27.586 32.5857C28.367 33.3668 29.6334 33.3668 30.4144 32.5857L31.586 31.4142C32.367 30.6331 32.367 29.3668 31.586 28.5857L30.4144 27.4142C29.6333 26.6331 28.367 26.6331 27.586 27.4142L26.4144 28.5857ZM36.4144 28.5857C35.6334 29.3668 35.6334 30.6331 36.4144 31.4142L37.586 32.5857C38.367 33.3668 39.6334 33.3668 40.4144 32.5857L41.586 31.4142C42.367 30.6331 42.367 29.3668 41.586 28.5857L40.4144 27.4142C39.6333 26.6331 38.367 26.6331 37.586 27.4142L36.4144 28.5857Z" fill="#C29E57"/>
</svg>
