<svg width="68" height="68" viewBox="0 0 68 68" fill="none" xmlns="http://www.w3.org/2000/svg">
<path d="M18.6726 52.7335C19.0524 52.2693 19.6206 52 20.2205 52H47.7795C48.3794 52 48.9476 52.2693 49.3274 52.7335C50.3959 54.0394 49.4668 56 47.7795 56H20.2205C18.5332 56 17.6041 54.0394 18.6726 52.7335Z" fill="white"/>
<path d="M25.4644 49.5568C25.6713 48.6462 26.4808 48 27.4146 48H40.5854C41.5192 48 42.3287 48.6462 42.5356 49.5568L43.4447 53.5568C43.7292 54.8083 42.7779 56 41.4945 56H26.5055C25.2221 56 24.2708 54.8083 24.5553 53.5568L25.4644 49.5568Z" fill="white"/>
<path d="M26 19C26 12 34 12 34 12L34 50H24.9675C23.3254 50 22.0739 47.9429 22.7791 46.4599C24.4324 42.9834 26.794 37.8342 28.0797 35.0191C28.573 33.9391 28.0192 32.6731 26.8929 32.2976L24.1921 31.3974C23.4802 31.1601 23 30.4938 23 29.7434C23 28.7806 23.7805 28 24.7434 28H30.6972C30.8946 28 31.0876 27.9416 31.2519 27.8321C32.0751 27.2832 31.698 25.7361 30.7609 25.4189C28.5425 24.6678 26 22.9463 26 19Z" fill="white"/>
<path d="M42 19C42 12 34 12 34 12L34 50H43.0325C44.6746 50 45.9261 47.9429 45.2209 46.4599C43.5676 42.9834 41.206 37.8342 39.9203 35.0191C39.427 33.9391 39.9808 32.6731 41.1071 32.2976L43.8079 31.3974C44.5198 31.1601 45 30.4938 45 29.7434C45 28.7806 44.2195 28 43.2566 28H37.3028C37.1054 28 36.9124 27.9416 36.7481 27.8321C35.9249 27.2832 36.302 25.7361 37.2391 25.4189C39.4575 24.6678 42 22.9463 42 19Z" fill="white"/>
</svg>
