<svg width="68" height="68" viewBox="0 0 68 68" fill="none" xmlns="http://www.w3.org/2000/svg">
<path d="M18.6726 52.7335C19.0524 52.2693 19.6206 52 20.2205 52H47.7795C48.3794 52 48.9476 52.2693 49.3274 52.7335C50.3959 54.0394 49.4668 56 47.7795 56H20.2205C18.5332 56 17.6041 54.0394 18.6726 52.7335Z" fill="#000033"/>
<path d="M25.4644 49.5568C25.6713 48.6462 26.4808 48 27.4146 48H40.5854C41.5192 48 42.3287 48.6462 42.5356 49.5568L43.4447 53.5568C43.7292 54.8083 42.7779 56 41.4945 56H26.5055C25.2221 56 24.2708 54.8083 24.5553 53.5568L25.4644 49.5568Z" fill="#000033"/>
<path d="M25.4142 29.5858C24.6332 30.3668 24.6332 31.6332 25.4142 32.4142L32.5858 39.5858C33.3668 40.3668 34.6332 40.3668 35.4142 39.5858L42.5858 32.4142C43.3668 31.6332 43.3668 30.3668 42.5858 29.5858L35.4142 22.4142C34.6332 21.6332 33.3668 21.6332 32.5858 22.4142L25.4142 29.5858Z" fill="#000033"/>
</svg>
