<svg width="68" height="68" viewBox="0 0 68 68" fill="none" xmlns="http://www.w3.org/2000/svg">
<path d="M18.6726 52.7335C19.0524 52.2693 19.6206 52 20.2205 52H47.7795C48.3794 52 48.9476 52.2693 49.3274 52.7335C50.3959 54.0394 49.4668 56 47.7795 56H20.2205C18.5332 56 17.6041 54.0394 18.6726 52.7335Z" fill="#000033"/>
<path d="M25.4644 49.5568C25.6713 48.6462 26.4808 48 27.4146 48H40.5854C41.5192 48 42.3287 48.6462 42.5356 49.5568L43.4447 53.5568C43.7292 54.8083 42.7779 56 41.4945 56H26.5055C25.2221 56 24.2708 54.8083 24.5553 53.5568L25.4644 49.5568Z" fill="#000033"/>
<path d="M25.4142 29.5858C24.6332 30.3668 24.6332 31.6332 25.4142 32.4142L32.5858 39.5858C33.3668 40.3668 34.6332 40.3668 35.4142 39.5858L42.5858 32.4142C43.3668 31.6332 43.3668 30.3668 42.5858 29.5858L35.4142 22.4142C34.6332 21.6332 33.3668 21.6332 32.5858 22.4142L25.4142 29.5858Z" fill="#000033"/>
<path d="M29.4142 13.5858C28.6332 14.3668 28.6332 15.6332 29.4142 16.4142L32.5858 19.5858C33.3668 20.3668 34.6332 20.3668 35.4142 19.5858L38.5858 16.4142C39.3668 15.6332 39.3668 14.3668 38.5858 13.5858L35.4142 10.4142C34.6332 9.63316 33.3668 9.63316 32.5858 10.4142L29.4142 13.5858Z" fill="#000033"/>
<path d="M45.4142 29.5858C44.6332 30.3668 44.6332 31.6332 45.4142 32.4142L48.5858 35.5858C49.3668 36.3668 50.6332 36.3668 51.4142 35.5858L54.5858 32.4142C55.3668 31.6332 55.3668 30.3668 54.5858 29.5858L51.4142 26.4142C50.6332 25.6332 49.3668 25.6332 48.5858 26.4142L45.4142 29.5858Z" fill="#000033"/>
<path d="M13.4142 29.5858C12.6332 30.3668 12.6332 31.6332 13.4142 32.4142L16.5858 35.5858C17.3668 36.3668 18.6332 36.3668 19.4142 35.5858L22.5858 32.4142C23.3668 31.6332 23.3668 30.3668 22.5858 29.5858L19.4142 26.4142C18.6332 25.6332 17.3668 25.6332 16.5858 26.4142L13.4142 29.5858Z" fill="#000033"/>
</svg>
