<svg width="68" height="68" viewBox="0 0 68 68" fill="none" xmlns="http://www.w3.org/2000/svg">
<path d="M18.8845 52.7335C19.2643 52.2693 19.8325 52 20.4324 52H47.9914C48.5913 52 49.1595 52.2693 49.5393 52.7335C50.6078 54.0394 49.6787 56 47.9914 56H20.4324C18.7451 56 17.8161 54.0394 18.8845 52.7335Z" fill="#000033"/>
<path d="M25.6763 49.5568C25.8832 48.6462 26.6928 48 27.6266 48H40.7973C41.7311 48 42.5406 48.6462 42.7475 49.5568L43.6566 53.5568C43.9411 54.8083 42.9898 56 41.7064 56H26.7175C25.434 56 24.4828 54.8083 24.7672 53.5568L25.6763 49.5568Z" fill="#000033"/>
<circle cx="7" cy="17" r="4" fill="#000033"/>
<circle cx="23" cy="12" r="4" fill="#000033"/>
<path d="M7.19597 25.7884L17.061 48.7884C17.3762 49.5235 18.0992 50 18.899 50H34C35.1046 50 36 49.1046 36 48V35.5446C36 35.188 35.9047 34.8379 35.7239 34.5306L26.58 18.986C26.2206 18.3751 25.5648 18 24.8561 18H24.1435C22.9845 18 22.0681 18.9821 22.1483 20.1384L22.9827 32.1693C23.1146 34.0707 20.7644 35.0614 19.4953 33.6394L10.5964 23.6683C10.217 23.2431 9.67415 23 9.10427 23H9.03403C7.59795 23 6.62989 24.4686 7.19597 25.7884Z" fill="#000033"/>
<circle r="4" transform="matrix(-1 0 0 1 61 17)" fill="#000033"/>
<circle r="4" transform="matrix(-1 0 0 1 45 12)" fill="#000033"/>
<path d="M60.804 25.7884L50.939 48.7884C50.6238 49.5235 49.9008 50 49.101 50H34C32.8954 50 32 49.1046 32 48V35.5446C32 35.188 32.0953 34.8379 32.2761 34.5306L41.42 18.986C41.7794 18.3751 42.4352 18 43.1439 18H43.8565C45.0155 18 45.9319 18.9821 45.8517 20.1384L45.0173 32.1693C44.8854 34.0707 47.2356 35.0614 48.5047 33.6394L57.4036 23.6683C57.783 23.2431 58.3258 23 58.8957 23H58.966C60.402 23 61.3701 24.4686 60.804 25.7884Z" fill="#000033"/>
</svg>
