<svg width="151" height="75" viewBox="0 0 151 75" fill="none" xmlns="http://www.w3.org/2000/svg">
<path d="M0.24 42.48L2.72 41.68L9.12 20.16C9.97333 20.0267 10.8267 19.9067 11.68 19.8C12.56 19.6933 13.1733 19.6267 13.52 19.6C13.6267 19.6 13.84 19.7067 14.16 19.92L20.68 41.68L23.16 42.48V44H14V42.28L16.72 41.48L15.16 35.92H7.72L6.24 41.48L9.08 42.28V44H0.24V42.48ZM14.56 33.8L11.68 23.08H11.2L8.32 33.8H14.56ZM27.1278 44.36C26.9945 44.36 26.7278 44.1733 26.3278 43.8C25.9545 43.4267 25.7678 43.1733 25.7678 43.04V28.32L24.3678 27.84V26.36C26.3945 25.96 27.5278 25.76 27.7678 25.76C27.9011 25.76 28.1945 25.9733 28.6478 26.4C29.1278 26.8267 29.3678 27.0933 29.3678 27.2L29.2878 28.6C31.2078 26.5733 32.2478 25.56 32.4078 25.56C32.8345 25.56 33.7278 25.7733 35.0878 26.2C35.1678 26.3867 35.2211 26.6 35.2478 26.84C35.3011 27.08 35.3278 27.28 35.3278 27.44C35.3278 27.6 35.1678 27.9733 34.8478 28.56C34.5545 29.1467 34.3545 29.4667 34.2478 29.52C33.3678 29.1733 32.6611 29 32.1278 29C31.7811 29 30.8745 29.4267 29.4078 30.28V41.48L31.4478 42.08V43.72C28.8078 44.1467 27.3678 44.36 27.1278 44.36ZM42.24 44.36C41.28 44.36 40.36 44.0533 39.48 43.44C38.6 42.8 37.88 41.8533 37.32 40.6C36.7867 39.32 36.52 37.7467 36.52 35.88C36.52 34.5733 36.6 33.3467 36.76 32.2C36.9467 31.0533 37.1867 30.2133 37.48 29.68C37.7467 29.28 38.28 28.76 39.08 28.12C39.9067 27.48 40.7333 26.92 41.56 26.44C42.3867 25.96 42.96 25.72 43.28 25.72C44.56 25.72 46.0267 25.9733 47.68 26.48L47.56 31.6H45.12L44.56 28.84C44.24 28.68 43.84 28.5333 43.36 28.4C42.88 28.2667 42.4533 28.2 42.08 28.2C41.84 28.2 41.6533 28.2533 41.52 28.36C41.1467 28.6533 40.8533 29.44 40.64 30.72C40.4533 32 40.36 33.5467 40.36 35.36C40.36 36.7467 40.5067 37.8933 40.8 38.8C41.12 39.7067 41.4933 40.3733 41.92 40.8C42.3467 41.2267 42.76 41.44 43.16 41.44H47.68V43.12C46.7467 43.4133 45.68 43.6933 44.48 43.96C43.3067 44.2267 42.56 44.36 42.24 44.36ZM52.83 44.36C52.6967 44.36 52.4433 44.1733 52.07 43.8C51.6967 43.4267 51.51 43.1733 51.51 43.04V20.84L50.11 20.28V18.8C52.2967 18.3733 53.51 18.16 53.75 18.16C53.8833 18.16 54.15 18.3467 54.55 18.72C54.95 19.0933 55.15 19.3467 55.15 19.48L54.95 28.52L55.15 28.56C57.6567 26.6933 58.99 25.76 59.15 25.76C61.07 25.76 62.51 26.2667 63.47 27.28C64.43 28.2667 64.91 30 64.91 32.48V41.64L66.31 42.24V43.72C64.0967 44.1467 62.87 44.36 62.63 44.36C62.4967 44.36 62.23 44.1733 61.83 43.8C61.4567 43.4267 61.27 43.1733 61.27 43.04V32.48C61.27 30.8267 61.03 29.7867 60.55 29.36C60.0967 28.9333 59.5633 28.72 58.95 28.72C58.6833 28.72 57.4167 29.2267 55.15 30.24V41.64L56.51 42.24V43.72C54.2967 44.1467 53.07 44.36 52.83 44.36Z" fill="#000033"/>
<path d="M76.92 60.36C75.6667 60.36 74.4933 59.9467 73.4 59.12C72.3067 58.2933 71.4133 57.0267 70.72 55.32C70.0533 53.5867 69.72 51.4533 69.72 48.92C69.72 47.1067 69.8267 45.44 70.04 43.92C70.2533 42.3733 70.5467 41.1467 70.92 40.24C71.32 39.6 71.9733 38.92 72.88 38.2C73.7867 37.4533 74.6933 36.8267 75.6 36.32C76.5067 35.8133 77.16 35.56 77.56 35.56C78.3333 35.5867 79.4133 35.64 80.8 35.72C82.2133 35.7733 83.6 35.8533 84.96 35.96L84.48 42.88H82.32L81.84 38.8C81.2 38.6667 80.36 38.56 79.32 38.48C78.28 38.4 77.4933 38.36 76.96 38.36C76.4267 38.36 76 38.44 75.68 38.6C75.04 38.9467 74.5467 39.9067 74.2 41.48C73.8533 43.0533 73.68 45.0667 73.68 47.52C73.68 51.2533 74.1333 53.84 75.04 55.28C75.9733 56.6933 77.2267 57.4 78.8 57.4H81.68L82.36 52.32L84.4 52.36L84.44 59.44C83.8 59.6267 82.4933 59.8267 80.52 60.04C78.5467 60.2533 77.3467 60.36 76.92 60.36ZM90.3222 60.36C90.1889 60.36 89.9355 60.1733 89.5622 59.8C89.1889 59.4267 89.0022 59.1733 89.0022 59.04V36.84L87.6022 36.28V34.8C89.7889 34.3733 91.0022 34.16 91.2422 34.16C91.3755 34.16 91.6422 34.3467 92.0422 34.72C92.4422 35.0933 92.6422 35.3467 92.6422 35.48L92.4422 44.52L92.6422 44.56C95.1489 42.6933 96.4822 41.76 96.6422 41.76C98.5622 41.76 100.002 42.2667 100.962 43.28C101.922 44.2667 102.402 46 102.402 48.48V57.64L103.802 58.24V59.72C101.589 60.1467 100.362 60.36 100.122 60.36C99.9889 60.36 99.7222 60.1733 99.3222 59.8C98.9489 59.4267 98.7622 59.1733 98.7622 59.04V48.48C98.7622 46.8267 98.5222 45.7867 98.0422 45.36C97.5889 44.9333 97.0555 44.72 96.4422 44.72C96.1755 44.72 94.9089 45.2267 92.6422 46.24V57.64L94.0022 58.24V59.72C91.7889 60.1467 90.5622 60.36 90.3222 60.36ZM113.348 60.36C112.201 60.36 111.121 60.0533 110.108 59.44C109.094 58.8267 108.268 57.88 107.628 56.6C107.014 55.32 106.708 53.7467 106.708 51.88C106.708 50.5467 106.788 49.32 106.948 48.2C107.134 47.0533 107.374 46.2133 107.668 45.68C107.934 45.28 108.481 44.7467 109.308 44.08C110.161 43.4133 111.014 42.8267 111.868 42.32C112.748 41.8133 113.348 41.56 113.668 41.56C115.108 41.56 116.268 41.7867 117.148 42.24C118.054 42.6933 118.748 43.56 119.228 44.84C119.734 46.12 119.988 47.96 119.988 50.36L110.548 51.16C110.548 52.76 110.761 54.04 111.188 55C111.614 55.9333 112.108 56.5867 112.668 56.96C113.254 57.3333 113.788 57.52 114.268 57.52L116.148 57.44L119.428 57.32V58.96C118.441 59.28 117.268 59.6 115.908 59.92C114.574 60.2133 113.721 60.36 113.348 60.36ZM116.108 48.8C116.108 47.2 115.894 46 115.467 45.2C115.041 44.3733 114.334 43.96 113.348 43.96C112.761 43.96 112.254 44.0533 111.828 44.24C111.481 44.4 111.188 45.0133 110.948 46.08C110.734 47.1467 110.628 48.2933 110.628 49.52L116.108 48.8ZM130.198 60.36C129.638 60.36 128.518 60.2933 126.838 60.16C125.158 60.0533 123.878 59.9467 122.998 59.84L123.078 54.08L125.078 54.04L125.918 57.08C126.532 57.2933 127.252 57.4933 128.078 57.68C128.932 57.84 129.558 57.92 129.958 57.92C130.172 57.92 130.425 57.6267 130.718 57.04C131.038 56.4533 131.198 55.9333 131.198 55.48C131.198 55 131.078 54.6 130.838 54.28C130.625 53.9333 130.278 53.6133 129.798 53.32C129.318 53 128.505 52.5333 127.358 51.92C125.732 51.04 124.612 50.2667 123.998 49.6C123.385 48.9333 123.078 48.1333 123.078 47.2C123.078 46.2933 123.145 45.64 123.278 45.24C123.705 44.5733 124.412 43.8267 125.398 43C126.412 42.1733 127.132 41.76 127.558 41.76C128.438 41.76 129.572 41.8 130.958 41.88C132.372 41.9333 133.452 42 134.198 42.08L134.078 46.96H131.838L131.558 44.84C131.345 44.76 130.652 44.64 129.478 44.48C128.305 44.2933 127.572 44.2 127.278 44.2C126.692 44.2 126.398 44.76 126.398 45.88C126.398 46.3867 126.585 46.8267 126.958 47.2C127.358 47.5467 127.798 47.8667 128.278 48.16C128.785 48.4533 129.118 48.6533 129.278 48.76L130.358 49.4C131.798 50.2 132.932 50.96 133.758 51.68C134.612 52.3733 135.038 53.1733 135.038 54.08C135.038 54.6933 134.945 55.3733 134.758 56.12C134.332 56.8933 133.598 57.8 132.558 58.84C131.545 59.8533 130.758 60.36 130.198 60.36ZM144.73 60.36C144.17 60.36 143.05 60.2933 141.37 60.16C139.69 60.0533 138.41 59.9467 137.53 59.84L137.61 54.08L139.61 54.04L140.45 57.08C141.063 57.2933 141.783 57.4933 142.61 57.68C143.463 57.84 144.09 57.92 144.49 57.92C144.703 57.92 144.956 57.6267 145.25 57.04C145.57 56.4533 145.73 55.9333 145.73 55.48C145.73 55 145.61 54.6 145.37 54.28C145.156 53.9333 144.81 53.6133 144.33 53.32C143.85 53 143.036 52.5333 141.89 51.92C140.263 51.04 139.143 50.2667 138.53 49.6C137.916 48.9333 137.61 48.1333 137.61 47.2C137.61 46.2933 137.676 45.64 137.81 45.24C138.236 44.5733 138.943 43.8267 139.93 43C140.943 42.1733 141.663 41.76 142.09 41.76C142.97 41.76 144.103 41.8 145.49 41.88C146.903 41.9333 147.983 42 148.73 42.08L148.61 46.96H146.37L146.09 44.84C145.876 44.76 145.183 44.64 144.01 44.48C142.836 44.2933 142.103 44.2 141.81 44.2C141.223 44.2 140.93 44.76 140.93 45.88C140.93 46.3867 141.116 46.8267 141.49 47.2C141.89 47.5467 142.33 47.8667 142.81 48.16C143.316 48.4533 143.65 48.6533 143.81 48.76L144.89 49.4C146.33 50.2 147.463 50.96 148.29 51.68C149.143 52.3733 149.57 53.1733 149.57 54.08C149.57 54.6933 149.476 55.3733 149.29 56.12C148.863 56.8933 148.13 57.8 147.09 58.84C146.076 59.8533 145.29 60.36 144.73 60.36Z" fill="#000033"/>
</svg>
