<svg width="68" height="68" viewBox="0 0 68 68" fill="none" xmlns="http://www.w3.org/2000/svg">
<path d="M18.6726 52.7335C19.0524 52.2693 19.6206 52 20.2205 52H47.7795C48.3794 52 48.9476 52.2693 49.3274 52.7335V52.7335C50.3959 54.0394 49.4668 56 47.7795 56H20.2205C18.5332 56 17.6041 54.0394 18.6726 52.7335V52.7335Z" fill="white"/>
<path d="M25.4644 49.5568C25.6713 48.6462 26.4808 48 27.4146 48H40.5854C41.5192 48 42.3287 48.6462 42.5356 49.5568L43.4447 53.5568C43.7292 54.8083 42.7779 56 41.4945 56H26.5055C25.2221 56 24.2708 54.8083 24.5553 53.5568L25.4644 49.5568Z" fill="white"/>
<path d="M35.4004 21.0793C34.8977 21.3042 34.6977 21.8991 34.9421 22.3927L36.7625 26.0689C36.9109 26.3685 37.1991 26.5741 37.5307 26.6169L40.5 27V27C41.3653 27.1854 42.1559 26.1712 41.914 25.3199C41.4376 23.6441 41.2443 21.2434 42.8333 19C40.3685 19.0001 36.9924 20.367 35.4004 21.0793Z" fill="white"/>
<path d="M45.2425 31.5279C45.5345 30.6203 45.1454 29.6328 44.3128 29.1685L38.9688 26.1882C37.8666 25.5735 36.4775 26.1208 36.0908 27.3222L35.6128 28.8076C35.2745 29.8591 35.8526 30.9858 36.904 31.3241L42.6156 33.1621C43.6671 33.5005 44.7937 32.9224 45.1321 31.8709L45.2425 31.5279Z" fill="white"/>
<path d="M39.7108 49.1348C40.5494 49.3356 41.41 48.8988 41.7429 48.1033L44.1689 42.3064C44.6448 41.1692 43.9886 39.8764 42.7897 39.5893L42.274 39.4658C41.1998 39.2086 40.1204 39.8709 39.8632 40.9451L38.4098 47.0146C38.1836 47.9593 38.7661 48.9085 39.7108 49.1348V49.1348Z" fill="white"/>
<path d="M30.7108 49.1348C31.5494 49.3356 32.41 48.8988 32.7429 48.1033L35.1689 42.3064C35.6448 41.1692 34.9886 39.8764 33.7897 39.5893L33.274 39.4658C32.1998 39.2086 31.1204 39.8709 30.8632 40.9451L29.4098 47.0146C29.1836 47.9593 29.7661 48.9085 30.7108 49.1348V49.1348Z" fill="white"/>
<path d="M30.7169 33.6848L21 29.374L29.5812 35.0849L30.7169 33.6848Z" fill="white" stroke="white"/>
<path fill-rule="evenodd" clip-rule="evenodd" d="M35.1397 25.5512C35.891 24.526 37.4004 24.2875 38.357 25.1245L40.5003 26.9999C40.5003 26.9999 40.9197 30.3535 40.7942 34.0385L31.8311 37.7185L32.13 38.669L41.6649 36.5375L44.1588 39.7964C44.7382 40.5535 44.7027 41.6143 44.0739 42.3309L43.8362 42.6018C43.1077 43.4321 41.8441 43.5146 41.0138 42.7861L39.3486 41.325C39.2208 41.5661 39.0826 41.7919 38.9333 41.9999C33.8187 49.1232 17.0005 45.4999 17.0005 36C26.2889 36 32.5405 29.0977 35.1397 25.5512Z" fill="white"/>
</svg>
