<svg width="68" height="68" viewBox="0 0 68 68" fill="none" xmlns="http://www.w3.org/2000/svg">
<path d="M18.6726 52.7335C19.0524 52.2693 19.6206 52 20.2205 52H47.7795C48.3794 52 48.9476 52.2693 49.3274 52.7335C50.3959 54.0394 49.4668 56 47.7795 56H20.2205C18.5332 56 17.6041 54.0394 18.6726 52.7335Z" fill="#000033"/>
<path d="M25.4644 49.5568C25.6713 48.6462 26.4808 48 27.4146 48H40.5854C41.5192 48 42.3287 48.6462 42.5356 49.5568L43.4447 53.5568C43.7292 54.8083 42.7779 56 41.4945 56H26.5055C25.2221 56 24.2708 54.8083 24.5553 53.5568L25.4644 49.5568Z" fill="#000033"/>
<path fill-rule="evenodd" clip-rule="evenodd" d="M14 14C14 12.8954 14.8954 12 16 12H23C24.1046 12 25 12.8954 25 14V17.5C25 18.3284 25.6716 19 26.5 19C27.3284 19 28 18.3284 28 17.5V14C28 12.8954 28.8954 12 30 12H34C35.1046 12 36 12.8954 36 14V19V40V48C36 49.1046 35.1046 50 34 50H24C22.8954 50 22 49.1046 22 48V36C22 34.8954 21.1046 34 20 34H16C14.8954 34 14 33.1046 14 32V14Z" fill="#000033"/>
<path fill-rule="evenodd" clip-rule="evenodd" d="M54 14C54 12.8954 53.1046 12 52 12H45C43.8954 12 43 12.8954 43 14V17.5C43 18.3284 42.3284 19 41.5 19C40.6716 19 40 18.3284 40 17.5V14C40 12.8954 39.1046 12 38 12H34C32.8954 12 32 12.8954 32 14V19V40V48C32 49.1046 32.8954 50 34 50H44C45.1046 50 46 49.1046 46 48V36C46 34.8954 46.8954 34 48 34H52C53.1046 34 54 33.1046 54 32V14Z" fill="#000033"/>
</svg>
